<!-- icon666.com - MILLIONS vector ICONS FREE --><svg viewBox="0 0 64 64" xmlns="http://www.w3.org/2000/svg"><g id="_20_Password" data-name="20 Password"><path d="m6 22v8a1 1 0 0 0 1 1h4a1 1 0 0 0 1-1v-8c.3268-9.26 13.67-9.2669 14 0v8a1 1 0 0 0 1 1h4a1 1 0 0 0 1-1v-8c-.71-17.2372-25.2839-17.25-26 0z" fill="#46464e" style="fill: rgb(44, 44, 48);"></path><rect fill="#ffa000" height="27" rx="3" width="34" x="2" y="29" style="fill: rgb(186, 123, 13);"></rect><rect fill="#26a6fe" height="10" rx="3" width="36" x="26" y="32" style="fill: rgb(110, 162, 196);"></rect><rect fill="#26a6fe" height="10" rx="3" width="36" x="26" y="43" style="fill: rgb(110, 162, 196);"></rect><g fill="#eee"><path d="m54.5 45.5c-3.3336-.0454-3.3335 5.0444 0 4.9994 3.3333.0457 3.3333-5.0441 0-4.9994z" fill="#eee"></path><path d="m47.5 45.5c-3.3336-.0454-3.3335 5.0444 0 4.9994 3.3333.0457 3.3333-5.0441 0-4.9994z" fill="#eee"></path><path d="m40.5 45.5c-3.3336-.0454-3.3335 5.0444 0 4.9994 3.3333.0457 3.3333-5.0441 0-4.9994z" fill="#eee"></path><path d="m33.5 45.5c-3.3336-.0454-3.3335 5.0444 0 4.9994 3.3333.0457 3.3333-5.0441 0-4.9994z" fill="#eee"></path></g></g></svg>